<?xml version="1.0" encoding="utf-8"?>
<!-- Generator: Adobe Illustrator 26.0.3, SVG Export Plug-In . SVG Version: 6.00 Build 0)  -->
<svg version="1.0" id="katman_1" xmlns="http://www.w3.org/2000/svg" xmlns:xlink="http://www.w3.org/1999/xlink" x="0px" y="0px"
	 viewBox="0 0 1553.8 1194.7" style="enable-background:new 0 0 1553.8 1194.7;" xml:space="preserve">
<style type="text/css">
	.st0{fill:#FF0000;}
</style>
<g id="p2hsjQIzW9oo71rnrTwVw" transform="matrix(1 0 0 1 500 500)">
	<path vector-effect="non-scaling-stroke" class="st0" d="M-210.6,97.3c-3.3,0-6.5-1.3-8.9-3.7c-2.3-2.4-3.7-5.5-3.7-8.9v-99.9
		c0-3.3,1.3-6.5,3.7-8.9c2.3-2.3,5.5-3.7,8.9-3.7H14.7c1.6,0,3.3,0.3,4.8,0.9c1.5,0.6,2.9,1.5,4.1,2.7c1.2,1.2,2.1,2.5,2.7,4.1
		c0.6,1.5,1,3.2,1,4.8v99.9c0,1.6-0.3,3.3-1,4.8c-0.6,1.5-1.6,2.9-2.7,4.1c-1.2,1.2-2.6,2.1-4.1,2.7s-3.2,0.9-4.8,0.9L-210.6,97.3z
		 M-210.6-90.2h412.5c3.3,0,6.5-1.3,8.8-3.7c2.3-2.3,3.7-5.5,3.7-8.8v-100c0-3.3-1.3-6.5-3.7-8.8c-2.3-2.3-5.5-3.7-8.8-3.7h-412.6
		c-3.3,0-6.5,1.3-8.8,3.7c-2.3,2.3-3.7,5.5-3.7,8.8v100c0,3.3,1.3,6.5,3.7,8.8C-217.1-91.5-213.9-90.2-210.6-90.2L-210.6-90.2z
		 M276.9-402.7h-487.5c-3.3,0-6.5,1.3-8.9,3.7c-2.3,2.3-3.7,5.5-3.7,8.9v99.9c0,3.3,1.3,6.5,3.7,8.9c2.3,2.3,5.5,3.7,8.9,3.7h487.4
		c70.8,0,140.2,20.1,200.1,57.9C536.9-182,584.9-128,615.4-64c30.5,63.9,42.2,135.2,33.9,205.6c-8.4,70.3-36.5,136.9-81.1,191.9
		c-44.6,55-103.9,96.3-171,119c-67.1,22.7-139.3,26-208.1,9.4C120.1,445.2,57.4,409.5,8,358.7c-49.4-50.8-83.4-114.5-98-183.8
		c-0.9-4.2-3.2-8.1-6.6-10.8c-3.4-2.7-7.6-4.2-11.9-4.2h-96.3c-1.8,0-3.6,0.4-5.2,1.2c-1.6,0.8-3.1,1.9-4.3,3.2s-2,3-2.5,4.7
		c-0.5,1.7-0.6,3.5-0.4,5.3c14.7,94.5,56.2,182.7,119.5,254.4c63.3,71.6,145.9,123.6,237.8,149.7c92,26.1,189.5,25.4,281-2.2
		s173.2-80.9,235.4-153.5S758.9,261,772.1,166.4c13.2-94.7-1-191.2-41-278c-40-86.9-104-160.4-184.5-212
		C466.1-375.2,372.5-402.7,276.9-402.7L276.9-402.7z"/>
</g>
</svg>
